<svg height="512" viewBox="0 0 64 64" width="512" xmlns="http://www.w3.org/2000/svg"><g id="Twotone"><g id="Color_copy_2" data-name="Color copy 2"><g><path d="m32 3a29 29 0 1 0 29 29 29 29 0 0 0 -29-29zm-14 47a8 8 0 1 1 8-8 8 8 0 0 1 -8 8zm17-25.141v4.141h-6v-4.141a3.977 3.977 0 0 1 -1 .141c-.1 0-.193-.022-.291-.029-.11.134-.22.268-.345.393-2.734 2.734-7.8 2.1-11.314-1.414s-4.15-8.58-1.414-11.314 7.8-2.1 11.314 1.414a11.249 11.249 0 0 1 2.063 2.822 3.994 3.994 0 0 1 7.987.128 4 4 0 1 1 -1 7.859zm10.566 16.051-.218 1.958a3.521 3.521 0 0 1 -3.499 3.132h-.789a3.521 3.521 0 0 1 -3.486-4.019l.2-1.423a3.52 3.52 0 0 1 1.533-2.431l.8-.536a3.522 3.522 0 0 1 5.453 3.319z" fill="#cff09e"/><path d="m32 9a22.9 22.9 0 0 0 -10.25 2.411 10.879 10.879 0 0 1 4.2 2.639 11.249 11.249 0 0 1 2.063 2.822 3.994 3.994 0 0 1 7.987.128 4 4 0 1 1 -1 7.859v4.141h-6v-4.141a3.977 3.977 0 0 1 -1 .141c-.1 0-.193-.022-.291-.029-.11.134-.22.268-.345.393-2.734 2.734-7.8 2.1-11.314-1.414a10.647 10.647 0 0 1 -2.9-5.119 23 23 0 0 0 -2.815 20.893 8 8 0 1 1 7.665 10.276c-.112 0-.22-.012-.331-.017a23 23 0 1 0 14.331-40.983zm13.566 31.91-.218 1.958a3.521 3.521 0 0 1 -3.499 3.132h-.789a3.521 3.521 0 0 1 -3.486-4.019l.2-1.423a3.52 3.52 0 0 1 1.533-2.431l.8-.536a3.522 3.522 0 0 1 5.453 3.319z" fill="#a8dba8"/><g><path d="m39 32a7.63 7.63 0 0 0 -3.828-4.414l-.172-.086v1.5h-6v-4.141a3.977 3.977 0 0 1 -1 .141c-.1 0-.193-.022-.291-.029-.11.134-.22.268-.345.393a5.924 5.924 0 0 1 -3.784 1.672 4.552 4.552 0 0 0 .066 1.2 2.691 2.691 0 0 1 -1.146 2.764 2.691 2.691 0 0 0 -1.146 2.768l.216 1.08a8 8 0 0 1 4.386 6.315 9.539 9.539 0 0 0 4.279 1.393 8.6 8.6 0 0 0 8.351-4.728 7.637 7.637 0 0 0 .414-5.828z" fill="#79bd9a"/><path d="m42.066 37c-.022 0-.043 0-.066.005a2.98 2.98 0 0 0 .779 1.995 2.983 2.983 0 0 0 1.667 4.944 3.47 3.47 0 0 1 -.6.056h-.786a3.521 3.521 0 0 1 -3.486-4.019l.2-1.423a3.511 3.511 0 0 1 .288-.935l-.755.5a3.52 3.52 0 0 0 -1.533 2.431l-.2 1.423a3.521 3.521 0 0 0 3.486 4.023h.789a3.521 3.521 0 0 0 3.5-3.132l.218-1.958a3.522 3.522 0 0 0 -3.501-3.91z" fill="#cff09e"/><g><path d="m26 18a3.876 3.876 0 0 0 -3.948 4.519 10.941 10.941 0 0 1 -4-2.569 9.827 9.827 0 0 1 -3.076-7.611c-.114.1-.231.19-.338.3-2.734 2.734-2.1 7.8 1.414 11.314s8.58 4.148 11.314 1.414c2.418-2.418 2.2-6.66-.318-10.04a3.969 3.969 0 0 0 -1.048 2.673z" fill="#cff09e"/><path d="m24.535 18.293a3 3 0 1 1 -4.242 0 3 3 0 0 1 4.242 0z" fill="#a8dba8"/></g><path d="m55.655 31.5a3 3 0 1 0 -4.655-2.5c0 .065.015.126.019.19a2.969 2.969 0 0 0 -1.019-.19 3 3 0 0 0 -3 3 2.969 2.969 0 0 0 .19 1.019c-.064 0-.125-.019-.19-.019a2.988 2.988 0 0 0 -2.221 5 2.983 2.983 0 0 0 3.691 4.6 3 3 0 0 0 5.53-1.6c0-.061-.014-.118-.018-.178a2.96 2.96 0 0 0 1.618-4.292 2.991 2.991 0 0 0 .055-5.03z" fill="#79bd9a"/><g><circle cx="32" cy="48" fill="#79bd9a" r="8"/><circle cx="30" cy="48" fill="#cff09e" r="6"/><circle cx="28" cy="48" fill="#79bd9a" r="4"/></g><circle cx="21" cy="32" fill="#79bd9a" r="2"/><circle cx="16" cy="27" fill="#79bd9a" r="2"/><path d="m22 46a7.991 7.991 0 0 1 -7.288-11.288 8 8 0 1 0 10.576 10.576 7.972 7.972 0 0 1 -3.288.712z" fill="#cff09e"/><path d="m35.5 23a7.5 7.5 0 0 1 -7.44-6.594 4 4 0 0 0 -.06.594 4 4 0 1 0 1 7.859v4.141h6v-4.141a3.93 3.93 0 0 0 4.947-3.329 7.458 7.458 0 0 1 -4.447 1.47z" fill="#cff09e"/><circle cx="24" cy="30" fill="#79bd9a" r="2"/></g></g></g><g id="Stroke_Close_copy" data-name="Stroke Close copy"><g fill="#3b8686"><path d="m32 2a30 30 0 1 0 30 30 30.034 30.034 0 0 0 -30-30zm0 58a28 28 0 1 1 28-28 28.032 28.032 0 0 1 -28 28z"/><path d="m57.122 31.5a3.987 3.987 0 0 0 -2.143-6.364 24.018 24.018 0 0 0 -22.979-17.136 23.747 23.747 0 0 0 -10.323 2.343 9.515 9.515 0 0 0 -2.665-.4h-.012a6.828 6.828 0 0 0 -7.062 7.057 9.236 9.236 0 0 0 .162 1.62 23.875 23.875 0 0 0 -2.8 21.131 8.954 8.954 0 0 0 8.017 11.214 24.02 24.02 0 0 0 9.68 4.5 8.968 8.968 0 0 0 10.022 0 24.066 24.066 0 0 0 15.3-10.7 4 4 0 0 0 2.654-3.3 3.992 3.992 0 0 0 2.027-3.465 3.867 3.867 0 0 0 -.181-1.169 3.99 3.99 0 0 0 .3-5.331zm-25.122-21.5a22.017 22.017 0 0 1 20.9 15.168 4.005 4.005 0 0 0 -2.774 2.832 4.007 4.007 0 0 0 -3.405 1.721.981.981 0 0 0 -.594-.66l-2.527-.939a19.515 19.515 0 0 0 2.169-4.087l3.523-1.079a1 1 0 0 0 -.586-1.912l-2.21.677c.148-.589.278-1.185.372-1.8l.119-.774a1 1 0 1 0 -1.976-.3l-.119.775c-.085.548-.2 1.084-.335 1.614l-.814-.9a1 1 0 1 0 -1.488 1.336l1.6 1.78a17.532 17.532 0 0 1 -1.455 2.848l-.437-1.57a1 1 0 1 0 -1.926.536l.859 3.087a17.631 17.631 0 0 1 -1.675 1.717 8.552 8.552 0 0 0 -3.221-3.164v-.906a5 5 0 0 0 .916-9.916 5 5 0 0 0 -9.244-1.579 12.218 12.218 0 0 0 -1.015-1.162 12.343 12.343 0 0 0 -2.464-1.906 21.749 21.749 0 0 1 7.807-1.437zm14 22.126a4.007 4.007 0 0 0 -3 3.874c0 .051.008.1.01.151a4.621 4.621 0 0 0 -2.866.294 8.557 8.557 0 0 0 -.1-4.431 19.445 19.445 0 0 0 2.272-2.238l3.116 1.161a.94.94 0 0 0 .744-.029 3.909 3.909 0 0 0 -.176 1.092zm-7.4 9.774.171-1.2a2.527 2.527 0 0 1 1.1-1.741l.8-.535a2.561 2.561 0 0 1 2.691-.048 3.927 3.927 0 0 0 -.362 1.624 3.975 3.975 0 0 0 1.316 2.945 2.512 2.512 0 0 1 -2.467 2.055h-.789a2.446 2.446 0 0 1 -.619-.091 8.981 8.981 0 0 0 -1.841-3.009zm-12.34 3.664a3 3 0 1 1 1.74 5.436 2.988 2.988 0 0 1 -2.82-2h1.82a1 1 0 0 0 0-2h-1.522a8.931 8.931 0 0 0 .782-1.436zm-3.141 3.829a8.949 8.949 0 0 0 1.144 3.2 22.173 22.173 0 0 1 -3.888-1.916 8.974 8.974 0 0 0 2.744-1.284zm5.89 3.5a5 5 0 0 0 -.009-9.793 5.078 5.078 0 0 1 1-.1 5 5 0 0 1 0 10 4.914 4.914 0 0 1 -.991-.1zm-2.128-12.284a9 9 0 0 0 -4.092-6.215 2.993 2.993 0 0 0 1.034-1.419c.06 0 .117.025.177.025a2.994 2.994 0 0 0 1.739-5.435 6.616 6.616 0 0 0 2.261-1.438v2.873a1 1 0 0 0 1 1h6a.987.987 0 0 0 .945-.727 6.534 6.534 0 0 1 1.688 2.073 17.639 17.639 0 0 1 -5.876 2.684 1 1 0 0 0 .243 1.97.976.976 0 0 0 .244-.03 19.61 19.61 0 0 0 6.048-2.67 6.58 6.58 0 0 1 -.6 4.078 7.429 7.429 0 0 1 -1.972 2.433 8.929 8.929 0 0 0 -8.838.8zm-2.881-11.609a.995.995 0 1 1 -.194 1.969 2.979 2.979 0 0 0 -.768-1.157.988.988 0 0 1 .962-.812zm-2 3a1 1 0 1 1 -1-1 1 1 0 0 1 1 1zm1.179-9.744a1.994 1.994 0 0 1 -2.179-.42 2 2 0 0 1 2.547-3.07 4.711 4.711 0 0 0 -.368 3.49zm1.821-1.256a3 3 0 0 1 3-3 1 1 0 0 0 1-1 3 3 0 0 1 6 0 1 1 0 0 0 1 1 3 3 0 1 1 -.749 5.891 1 1 0 0 0 -1.251.967v3.142h-4v-3.142a1 1 0 0 0 -1.251-.967 2.953 2.953 0 0 1 -3.749-2.891zm-9.651-7.654a5.033 5.033 0 0 1 3.656-1.408h.007a7.629 7.629 0 0 1 2.387.4.763.763 0 0 0 .085.026 9.912 9.912 0 0 1 3.759 2.392 10.38 10.38 0 0 1 1.232 1.5 5 5 0 0 0 -1.71.938 4.006 4.006 0 1 0 -.7 6.852 5.009 5.009 0 0 0 1.591 1.344 5.356 5.356 0 0 1 -2.656.672h-.007a9.037 9.037 0 0 1 -6.231-2.819 9.633 9.633 0 0 1 -2.624-4.575c0-.011-.006-.022-.009-.034a7.436 7.436 0 0 1 -.186-1.629 5.034 5.034 0 0 1 1.406-3.659zm.651 12.654a1 1 0 1 1 -1 1 1 1 0 0 1 1-1zm-6 6a21.84 21.84 0 0 1 2.882-10.862 12.068 12.068 0 0 0 2.048 3.068 2.994 2.994 0 1 0 4.052 2.971 10.238 10.238 0 0 0 2.819.8 2.975 2.975 0 0 0 -.622 1.043c-.061 0-.118-.018-.179-.018a3 3 0 0 0 -3 3 2.962 2.962 0 0 0 .187 1.009c-.063 0-.124-.009-.187-.009a8.994 8.994 0 0 0 -7.425 3.924 21.961 21.961 0 0 1 -.575-4.926zm1 10a7 7 0 1 1 7 7 7.008 7.008 0 0 1 -7-7zm20 12.92a6.991 6.991 0 0 0 0-13.84 7 7 0 1 1 1 13.92 6.9 6.9 0 0 1 -1-.08zm8.719-2.32a8.83 8.83 0 0 0 1.22-5.617c.04 0 .08.013.121.013h.789a4.511 4.511 0 0 0 4.284-3.1 3.922 3.922 0 0 0 .627.077l-.683 1.639a1 1 0 0 0 1.846.77l.858-2.06a3.95 3.95 0 0 0 1.091.493 22.1 22.1 0 0 1 -10.153 7.785zm15.381-20.267a1.991 1.991 0 0 1 -.038 3.353 1 1 0 0 0 -.334 1.337 1.966 1.966 0 0 1 .272.977 2 2 0 0 1 -1.347 1.877 1 1 0 0 0 -.669 1.01c0 .024.013.089.016.113a2 2 0 0 1 -1.554 1.946l-.02.006a2 2 0 0 1 -.426.048 1.977 1.977 0 0 1 -.876-.214l1.431-.954a.993.993 0 0 0 -1.028-1.7l.5-1.206 1.936.074h.037a1 1 0 0 0 .037-2l-1.186-.043.816-1.957h.333a1 1 0 0 0 0-2h-.586l-.707-.707a1 1 0 0 0 -1.414 1.414l.527.527-.864 2.072-1.324-1.08a1 1 0 1 0 -1.264 1.548l1.785 1.458-.938 2.252-.266-.8a1 1 0 1 0 -1.9.632l.548 1.643a1.978 1.978 0 0 1 -.71-.3c-.007 0-.012-.01-.019-.014a2 2 0 0 1 -.868-1.645 1.974 1.974 0 0 1 .522-1.331 1 1 0 0 0 0-1.338 1.974 1.974 0 0 1 -.522-1.331 2 2 0 0 1 1.97-2c.026 0 .132.016.157.017a.986.986 0 0 0 .862-.4 1 1 0 0 0 .139-.94 1.972 1.972 0 0 1 -.128-.677 2 2 0 0 1 2-2 1.972 1.972 0 0 1 .678.129 1 1 0 0 0 1.339-1c0-.025-.014-.1-.017-.128a2 2 0 0 1 2-2 1.844 1.844 0 0 1 .2.02h.012a1.991 1.991 0 0 1 .889 3.645 1 1 0 0 0 0 1.666z"/><circle cx="18" cy="38" r="1"/><circle cx="18" cy="46" r="1"/><path d="m21.964 40.866a1 1 0 1 0 -1.364-.366 1 1 0 0 0 1.364.366z"/><path d="m14.036 43.134a1 1 0 1 0 1.364.366 1 1 0 0 0 -1.364-.366z"/><path d="m15.036 39.134a1 1 0 1 0 .364 1.366 1 1 0 0 0 -.364-1.366z"/><path d="m20.964 44.866a1 1 0 1 0 -.364-1.366 1 1 0 0 0 .364 1.366z"/><circle cx="30" cy="32" r="1"/><circle cx="28" cy="36" r="1"/><circle cx="35" cy="37" r="1"/><circle cx="35" cy="21" r="1"/><circle cx="42" cy="16" r="1"/><circle cx="13" cy="32" r="1"/></g></g></g></svg>